<?xml version="1.0" encoding="UTF-8"?><svg id="Vrstva_1" xmlns="http://www.w3.org/2000/svg" viewBox="0 0 4675.819 1015.511"><defs><style>.cls-1{fill:#d9b862;}</style></defs><path class="cls-1" d="M784.499,704.145c24.044,26.892,61.38,72.148,95.805,82.94,24.818,7.792,71.309-.129,78.52,35.151,8.372,40.958-28.803,51.951-60.687,58.315,12.066,80.714-56.129,121.712-126.431,131.795-101.766,14.607-206.613-23.294-293.045-73.794-20.81,7.889-39.603,21.108-60.057,30.674-86.425,40.442-218.348,68.623-306.628,22.036-43.499-22.964-63.034-61.397-54.525-110.719-12.647-4.202-26.48-4.598-38.248-11.421-22.592-13.107-25.915-46.12-6.421-63.937,20.044-18.301,53.895-11.066,79.246-24.076,26.552-13.623,76.625-73.625,97.515-98.806,33.553-40.434,52.209-99.443,52.516-152.233.081-13.978-9.284-34.537-11.687-49.838-16.801-106.92,54.363-136.134,80.988-221.671,15.204-48.83,13.494-104.161,30.57-153.346,29.061-83.706,109.517-126.608,194.804-94.595,102.024,38.288,86.166,177.809,114.082,262.016,21.197,63.937,70.608,97.717,74.939,173.051,2.162,37.602-11.953,74.374-10.397,109.589,3.065,69.761,25.431,99.967,69.14,148.869M246.344,441.524c-1.25,13.535.92,28.65,0,42.37,5.751.959,3.484-1.186,4.67-4.533,11.171-31.634,21.261-61.921,53.871-78.488,11.445-5.807,24.81-6.896,35.908-11.615,36.377-15.486,47.959-77.714,39.192-112.42-.984-3.912.04-9.34-5.493-7.864-6.09,37.361-18.592,72.592-37.248,105.38-2.726.524-2.21-.75-2.057-3.065,1.185-17.914,16.309-54.275,20.035-77.133,9.51-58.315.903-114.356,56.622-152.096,18.56-12.566,41.756-18.704,59.775-33.215,18.978-15.293,30.029-36.385,42.361-56.839,4.839-.831,2.799,1.968,2.758,4.969-.927,73.721,57.065,72.18,74.108,133.045,15.769,56.315,9.147,123.422,35.747,179.164-4.057.404-7.719-6.09-9.598-8.993-5.783-8.921-13.543-24.141-17.648-34.013-7.444-17.874-10.502-37.014-17.196-55.097-10.187,25.254-4.968,63.155,4.759,88.191,13.704,35.256,40.95,28.739,68.43,45.233,14.026,8.412,27.851,24.318,35.691,38.708,1.185,2.186,13.284,36.086,14.123,19.035.46-9.308-5.388-33.634-8.042-43.716-12.719-48.201-50.395-89.24-66.986-139.667-29.182-88.675-12.332-252.813-138.828-262.073-147.91-10.832-131.464,180.262-168.115,268.066-22.35,53.532-71.269,96.547-76.842,156.669M504.633,105.731c-3.839-2.839-9.969,10.808-12.446,13.437-41.369,43.975-116.212,46.782-97.757,124.681,7.913,33.4,49.016,96.894,88.288,93.111,47.725-4.605,93.087-88.675,87.836-132.851-4.614-38.764-59.678-59.331-65.921-98.378M652.245,439.637c-42.41-51-105.653-4.912-120.478-91.345-1.024-5.977,1.968-13.212-3.371-17.309-22.657,15.534-37.683,35.07-67.607,22.157-12.687-5.477-21.366-18.398-34.642-20.116-1.847,22.124-11.639,46.636-28.924,61.001-22.536,18.729-51.395,13.704-76.246,27.077-67.543,36.353-51.234,181.254-84.593,246.046-12.325,23.931-94.612,113.566-116.728,127.124-24.915,15.269-45.225,14.849-71.769,21.213-43.854,10.518-10.22,50.976,26.27,34.546,13.615-6.138,32.675-24.407,47.572-33.03,37.183-21.527,77.754-35.787,111.13-64.518,50.822-43.749,76.108-117.252,89.296-181.415,2.347-11.397,10.01-70.334,12.897-73.883,3.073-3.759,7.961-4.146,11.72-1.088,7.267,5.92.524,40.224.71,50.895.677,38.852,24.149,67.18,34.247,102.193,19.075,66.171-.903,124.705-42.401,176.664,31.416,14.381,63.445,28.085,94.393,44.119,8.146,4.226,37.256,23.213,43.039,23.213,25.302-10.993,49.024-27.504,74.027-39.756,20.479-10.034,41.893-18.882,63.389-26.52,1.185-1.565-15.043-21.326-17.382-24.948-24.246-37.53-38.982-83.537-31.682-128.455,6.614-40.684,33.634-76.44,36.747-116.179.928-11.865-3.073-54.936,2.976-61.082,3.46-3.516,10.389-2.306,13.494,1.581,14.792,105.21,36.425,215.67,132.407,276.244,26.609,16.793,56.791,27.174,83.884,42.176,16.018,8.873,46.66,35.764,61.582,37.595,31.231,3.823,53.927-28.754,19.777-38.353-35.594-10.009-53.557-3.839-87.562-28.166-21.003-15.026-97.289-94.401-109.581-115.663-38.095-65.873-14.97-169.938-66.591-232.019M339.31,622.351c-5.033-.653-3.275.008-4.315,2.872-23.592,64.784-28.682,109.364-85.594,156.202-2.299,1.903-28.19,16.914-23.713,20.697l73.246,12.397c14.147-1.371,43.547-53.347,48.717-67.099,16.164-42.942,10.284-84.078-8.34-125.068M618.304,622.359c-3.759-.782-4.081,1.008-5.694,3.581-26.577,42.305-18.664,106.621,6.106,147.894,4.63,7.719,26.996,39.289,34.134,40.313,5.856.847,35.772-8.227,45.281-9.695,9.146-1.42,20.334-1.702,29.698-2.331,4.525-3.791-21.455-18.785-23.705-20.697-47.701-40.619-64.421-84.118-82.69-142.563-1.669-5.331-3.113-10.856-3.13-16.502M173.607,829.617c-102.145,9.316-124.89,116.268-19.761,144.579,83.247,22.415,196.054-11.397,270.655-50.733,7.638-4.025,19.559-7.59,9.275-14.284-12.583-8.187-35.344-18.164-49.644-24.746-58.396-26.907-146.015-60.695-210.524-54.815M746.025,829.617c-61.268,4.944-173.381,44.644-224.18,79.601-7.904,5.436-5.001,6.509,2.041,11.106,38.514,25.141,128.415,53.75,174.253,59.267,52.129,6.283,164.792-1.282,170.179-71.059,5.17-66.905-69.922-83.142-122.293-78.915"/><path class="cls-1" d="M1255.919,309.672h-168.125v-43.739h386.822v43.739h-168.125v434.661h-50.572v-434.661Z"/><path class="cls-1" d="M1968.053,616.533h-266.536l-57.409,127.8h-52.624l218.697-478.4h49.891l218.697,478.4h-53.31l-57.406-127.8ZM1949.598,575.527l-114.815-256.97-114.815,256.97h229.63Z"/><path class="cls-1" d="M2487.471,575.527v168.806h-88.845v-167.443l-187.942-310.957h94.997l140.103,233.048,141.47-233.048h87.479l-187.261,309.594Z"/><path class="cls-1" d="M2814.839,505.132c0-141.466,109.348-246.037,257.655-246.037s257.651,103.886,257.651,246.037-109.348,246.037-257.651,246.037-257.655-104.563-257.655-246.037ZM3240.615,505.132c0-97.726-71.757-168.121-168.121-168.121s-168.125,70.394-168.125,168.121,71.761,168.121,168.125,168.121,168.121-70.386,168.121-168.121Z"/><path class="cls-1" d="M3887.147,499.666h84.06v190.68c-49.891,40.321-119.6,60.824-187.261,60.824-148.303,0-257.647-103.201-257.647-246.037s109.345-246.037,259.018-246.037c79.957,0,146.932,26.655,192.042,77.916l-56.043,54.672c-37.588-37.588-80.642-54.672-131.903-54.672-101.83,0-173.587,69.024-173.587,168.121,0,97.049,71.757,168.121,172.91,168.121,34.169,0,67.653-6.829,98.412-24.599v-148.988Z"/><path class="cls-1" d="M4535.039,633.617h-239.2l-47.158,110.715h-91.583l215.279-478.4h87.479l215.964,478.4h-92.945l-47.835-110.715ZM4505.651,563.908l-90.212-209.127-89.535,209.127h179.747Z"/></svg>