<?xml version="1.0" encoding="UTF-8"?><svg id="Vrstva_1" xmlns="http://www.w3.org/2000/svg" viewBox="0 0 476.07 378.217"><defs><style>.cls-1{fill:#d9b862;}</style></defs><path class="cls-1" d="M310.345,172.446c5.887,6.585,15.032,17.668,23.463,20.313,6.076,1.907,17.463-.033,19.229,8.607,2.049,10.031-7.056,12.722-14.864,14.284,2.956,19.764-13.745,29.805-30.963,32.275-24.922,3.577-50.6-5.705-71.765-18.073-5.097,1.933-9.701,5.17-14.707,7.514-21.168,9.902-53.476,16.805-75.095,5.396-10.654-5.623-15.438-15.036-13.354-27.115-3.096-1.03-6.483-1.127-9.366-2.798-5.535-3.209-6.347-11.295-1.573-15.657,4.909-4.482,13.198-2.711,19.408-5.898,6.504-3.334,18.764-18.031,23.882-24.196,8.216-9.902,12.787-24.354,12.859-37.282.019-3.423-2.271-8.459-2.862-12.207-4.114-26.185,13.313-33.339,19.836-54.286,3.723-11.96,3.305-25.511,7.487-37.556,7.117-20.501,26.818-31.005,47.707-23.166,24.985,9.376,21.103,43.545,27.94,64.168,5.191,15.659,17.291,23.932,18.351,42.38.53,9.209-2.926,18.214-2.546,26.838.752,17.087,6.229,24.484,16.934,36.46M178.55,108.131c-.307,3.313.224,7.016,0,10.374,1.408.236.853-.29,1.143-1.11,2.737-7.747,5.208-15.164,13.193-19.221,2.803-1.424,6.076-1.69,8.794-2.846,8.909-3.791,11.745-19.031,9.598-27.532-.241-.957.009-2.285-1.346-1.924-1.492,9.15-4.553,17.776-9.121,25.806-.669.129-.542-.184-.504-.748.29-4.388,3.993-13.294,4.906-18.891,2.329-14.282.221-28.006,13.867-37.248,4.545-3.077,10.225-4.579,14.638-8.134,4.649-3.744,7.356-8.911,10.376-13.919,1.184-.203.684.481.675,1.216-.229,18.054,13.974,17.677,18.149,32.582,3.861,13.792,2.239,30.227,8.754,43.879-.995.097-1.891-1.494-2.351-2.204-1.417-2.183-3.315-5.911-4.322-8.329-1.824-4.378-2.572-9.065-4.211-13.493-2.496,6.184-1.217,15.464,1.167,21.596,3.355,8.634,10.027,7.04,16.758,11.078,3.435,2.061,6.82,5.955,8.739,9.48.292.535,3.254,8.838,3.461,4.663.113-2.28-1.32-8.239-1.971-10.706-3.115-11.806-12.342-21.857-16.406-34.204-7.144-21.716-3.018-61.917-33.998-64.183-36.224-2.652-32.195,44.146-41.172,65.649-5.472,13.11-17.455,23.646-18.818,38.37M241.806,25.892c-.941-.693-2.443,2.648-3.049,3.293-10.131,10.769-28.46,11.458-23.941,30.533,1.938,8.179,12.003,23.729,21.621,22.803,11.689-1.127,22.8-21.716,21.511-32.535-1.129-9.492-14.613-14.53-16.142-24.094M277.953,107.667c-10.385-12.49-25.872-1.204-29.505-22.369-.25-1.464.483-3.235-.825-4.241-5.549,3.805-9.228,8.589-16.555,5.427-3.109-1.342-5.234-4.506-8.485-4.925-.453,5.418-2.851,11.42-7.084,14.938-5.519,4.586-12.587,3.355-18.672,6.63-16.543,8.904-12.547,44.389-20.718,60.257-3.018,5.861-23.172,27.814-28.586,31.132-6.102,3.741-11.078,3.636-17.578,5.196-10.737,2.575-2.503,12.484,6.434,8.459,3.336-1.502,8.002-5.976,11.649-8.087,9.107-5.272,19.044-8.765,27.218-15.801,12.445-10.713,18.639-28.713,21.869-44.428.575-2.791,2.449-17.225,3.157-18.094.752-.92,1.95-1.016,2.871-.267,1.78,1.45.128,9.852.174,12.465.165,9.513,5.915,16.453,8.386,25.028,4.671,16.204-.22,30.538-10.383,43.264,7.695,3.522,15.539,6.877,23.118,10.805,1.995,1.035,9.124,5.684,10.541,5.684,6.195-2.692,12.003-6.735,18.129-9.735,5.015-2.457,10.258-4.626,15.523-6.497.29-.382-3.685-5.222-4.256-6.108-5.938-9.192-9.546-20.459-7.759-31.46,1.618-9.963,8.237-18.719,8.999-28.451.229-2.907-.752-13.455.73-14.961.847-.86,2.542-.564,3.304.389,3.621,25.764,8.919,52.817,32.428,67.653,6.514,4.111,13.907,6.653,20.542,10.329,3.923,2.171,11.427,8.758,15.081,9.206,7.65.938,13.207-7.042,4.844-9.393-8.716-2.45-13.117-.94-21.444-6.898-5.144-3.68-23.826-23.119-26.837-28.326-9.329-16.131-3.666-41.618-16.309-56.822M201.317,152.414c-1.233-.16-.802.002-1.058.703-5.776,15.866-7.025,26.784-20.961,38.254-.564.465-6.905,4.14-5.807,5.069l17.937,3.036c3.465-.337,10.664-13.066,11.93-16.433,3.958-10.517,2.518-20.591-2.042-30.629M269.644,152.416c-.922-.193-1,.247-1.396.877-6.509,10.361-4.569,26.112,1.497,36.219,1.134,1.889,6.609,9.623,8.358,9.873,1.434.207,8.761-2.014,11.088-2.374,2.242-.347,4.98-.417,7.275-.57,1.108-.929-5.255-4.6-5.806-5.069-11.682-9.949-15.777-20.601-20.253-34.913-.408-1.308-.762-2.66-.764-4.043M160.734,203.174c-25.014,2.282-30.585,28.475-4.838,35.408,20.388,5.488,48.014-2.791,66.285-12.425,1.87-.985,4.79-1.858,2.271-3.498-3.081-2.006-8.657-4.447-12.158-6.061-14.303-6.589-35.758-14.865-51.56-13.424M300.922,203.174c-15.004,1.21-42.462,10.934-54.901,19.493-1.936,1.332-1.226,1.594.5,2.721,9.43,6.158,31.448,13.162,42.672,14.515,12.767,1.539,40.359-.314,41.679-17.403,1.266-16.385-17.125-20.362-29.95-19.327"/><path class="cls-1" d="M22.304,273.891H0v-5.803h51.318v5.803h-22.304v57.665h-6.709v-57.665Z"/><path class="cls-1" d="M116.775,314.6h-35.36l-7.616,16.955h-6.981l29.014-63.468h6.619l29.014,63.468h-7.072l-7.616-16.955ZM114.327,309.161l-15.232-34.092-15.232,34.092h30.464Z"/><path class="cls-1" d="M185.679,309.161v22.395h-11.787v-22.214l-24.934-41.254h12.603l18.587,30.918,18.769-30.918h11.605l-24.843,41.073Z"/><path class="cls-1" d="M229.104,299.822c0-18.769,14.507-32.641,34.182-32.641s34.182,13.781,34.182,32.641-14.507,32.64-34.182,32.64-34.182-13.872-34.182-32.64ZM285.589,299.822c0-12.966-9.52-22.305-22.304-22.305s-22.305,9.339-22.305,22.305,9.521,22.304,22.305,22.304,22.304-9.339,22.304-22.304Z"/><path class="cls-1" d="M371.447,299.097h11.151v25.296c-6.618,5.35-15.866,8.069-24.843,8.069-19.675,0-34.182-13.69-34.182-32.64s14.507-32.641,34.363-32.641c10.608,0,19.493,3.536,25.478,10.336l-7.435,7.254c-4.987-4.987-10.699-7.254-17.499-7.254-13.51,0-23.029,9.157-23.029,22.305,0,12.874,9.52,22.304,22.938,22.304,4.533,0,8.977-.906,13.057-3.264v-19.766Z"/><path class="cls-1" d="M457.392,316.867h-31.733l-6.256,14.688h-12.149l28.561-63.468h11.605l28.65,63.468h-12.331l-6.347-14.688ZM453.494,307.619l-11.968-27.744-11.878,27.744h23.846Z"/><path class="cls-1" d="M85.001,370.94v7.101h-2.142v-7.101l-8.216-13.439h2.318l7.042,11.532,7.042-11.532h2.171l-8.216,13.439Z"/><path class="cls-1" d="M105.599,367.771c0-5.986,4.577-10.446,10.798-10.446,6.162,0,10.769,4.431,10.769,10.446s-4.607,10.445-10.769,10.445c-6.221,0-10.798-4.46-10.798-10.445ZM124.995,367.771c0-4.9-3.668-8.51-8.598-8.51-4.958,0-8.656,3.609-8.656,8.51s3.697,8.509,8.656,8.509c4.93,0,8.598-3.609,8.598-8.509Z"/><path class="cls-1" d="M158.238,367.771h2.083v7.834c-1.937,1.731-4.695,2.611-7.542,2.611-6.25,0-10.827-4.431-10.827-10.445s4.578-10.446,10.857-10.446c3.11,0,5.81.998,7.629,2.964l-1.35,1.379c-1.731-1.702-3.785-2.406-6.191-2.406-5.076,0-8.803,3.609-8.803,8.51,0,4.87,3.727,8.509,8.773,8.509,1.966,0,3.785-.44,5.37-1.584v-6.925Z"/><path class="cls-1" d="M191.072,372.554h-11.444l-2.465,5.487h-2.259l9.39-20.54h2.142l9.39,20.54h-2.289l-2.465-5.487ZM190.279,370.793l-4.929-11.032-4.93,11.032h9.859Z"/><path class="cls-1" d="M228.422,375.547l.851-1.673c1.467,1.438,4.079,2.494,6.778,2.494,3.845,0,5.517-1.613,5.517-3.638,0-5.634-12.646-2.172-12.646-9.771,0-3.022,2.348-5.634,7.57-5.634,2.318,0,4.725.675,6.367,1.819l-.733,1.731c-1.761-1.145-3.814-1.702-5.634-1.702-3.756,0-5.428,1.673-5.428,3.727,0,5.634,12.647,2.229,12.647,9.712,0,3.022-2.406,5.604-7.659,5.604-3.081,0-6.103-1.085-7.629-2.67Z"/><path class="cls-1" d="M263.868,359.379h-7.219v-1.878h16.608v1.878h-7.219v18.662h-2.171v-18.662Z"/><path class="cls-1" d="M287.869,369.267v-11.767h2.172v11.679c0,4.871,2.288,7.101,6.279,7.101,4.02,0,6.309-2.229,6.309-7.101v-11.679h2.112v11.767c0,5.897-3.169,8.949-8.421,8.949s-8.451-3.052-8.451-8.949Z"/><path class="cls-1" d="M323.019,357.501h8.363c6.572,0,11.003,4.226,11.003,10.271s-4.431,10.27-11.003,10.27h-8.363v-20.54ZM331.265,376.163c5.457,0,8.979-3.463,8.979-8.392s-3.521-8.393-8.979-8.393h-6.074v16.784h6.074Z"/><path class="cls-1" d="M358.992,357.501h2.172v20.54h-2.172v-20.54Z"/><path class="cls-1" d="M377.77,367.771c0-5.986,4.578-10.446,10.799-10.446,6.162,0,10.769,4.431,10.769,10.446s-4.606,10.445-10.769,10.445c-6.221,0-10.799-4.46-10.799-10.445ZM397.166,367.771c0-4.9-3.667-8.51-8.597-8.51-4.959,0-8.656,3.609-8.656,8.51s3.697,8.509,8.656,8.509c4.93,0,8.597-3.609,8.597-8.509Z"/></svg>